<svg width="40" height="40" viewBox="0 0 40 40" fill="none" xmlns="http://www.w3.org/2000/svg">
<g clip-path="url(#clip0_1566_14504)">
<path d="M18.5882 24.2353C18.5882 27.6471 16.8235 29.7647 14 29.7647C11.1765 29.7647 9.41177 27.6471 9.41177 24.2353C9.41177 20.8235 11.1765 18.7059 14 18.7059C16.8235 18.7059 18.5882 20.9412 18.5882 24.2353ZM22.4706 12.3529L21.2941 12.4706C20.5882 12.4706 20.2353 12.8235 20.2353 13.1765C20.2353 13.6471 20.5882 13.8824 21.1765 13.8824C21.8824 13.8824 22.4706 13.4118 22.4706 12.7059V12.3529ZM40 20C40 31.1765 31.1765 40 20 40C8.82353 40 0 31.1765 0 20C0 8.82353 8.82353 0 20 0C31.1765 0 40 8.82353 40 20ZM24.5882 12.1176C24.5882 13.7647 25.5294 14.7059 26.9412 14.7059C28.1176 14.7059 28.9412 14 29.0588 13.0588H28.1176C28 13.6471 27.5294 13.8824 26.9412 13.8824C26.1176 13.8824 25.6471 13.1765 25.6471 12.1176C25.6471 11.0588 26.1176 10.3529 26.9412 10.3529C27.6471 10.3529 28 10.7059 28.1176 11.1765H29.0588C28.9412 10.2353 28.1176 9.52941 26.9412 9.52941C25.5294 9.52941 24.5882 10.5882 24.5882 12.1176ZM11.1765 9.64706V14.5882H12.1176V11.6471C12.1176 11.0588 12.5882 10.4706 13.1765 10.4706C13.7647 10.4706 14.1176 10.8235 14.1176 11.4118V14.7059H15.0588V11.5294C15.0588 10.9412 15.5294 10.4706 16.1176 10.4706C16.7059 10.4706 17.0588 10.8235 17.0588 11.5294V14.7059H18V11.1765C18 10.1176 17.4118 9.52941 16.3529 9.52941C15.6471 9.52941 15.0588 9.88235 14.8235 10.4706H14.7059C14.4706 9.88235 14 9.52941 13.2941 9.52941C12.5882 9.52941 12.1176 9.88235 11.8824 10.4706H11.7647V9.64706H11.1765ZM20.3529 24.2353C20.3529 19.8824 17.8824 17.1765 14 17.1765C10.1176 17.1765 7.64706 19.8824 7.64706 24.2353C7.64706 28.5882 10.1176 31.2941 14 31.2941C17.8824 31.2941 20.3529 28.5882 20.3529 24.2353ZM20.9412 14.7059C21.6471 14.7059 22.1176 14.4706 22.4706 13.8824H22.5882V14.5882H23.5294V11.2941C23.5294 10.2353 22.8235 9.64706 21.5294 9.64706C20.3529 9.64706 19.6471 10.2353 19.5294 11.0588H20.4706C20.5882 10.7059 20.9412 10.4706 21.5294 10.4706C22.2353 10.4706 22.5882 10.8235 22.5882 11.2941V11.7647H21.1765C20 11.8824 19.2941 12.3529 19.2941 13.2941C19.2941 14.2353 20 14.8235 20.9412 14.7059ZM31.7647 27.1765C31.7647 25.1765 30.5882 24.1176 27.7647 23.5294L26.2353 23.1765C24.3529 22.8235 23.6471 22 23.6471 20.9412C23.6471 19.5294 24.9412 18.7059 26.7059 18.7059C28.4706 18.7059 29.6471 19.6471 29.7647 21.1765H31.5294C31.4118 18.8235 29.5294 17.1765 26.7059 17.1765C23.8824 17.1765 21.8824 18.8235 21.8824 21.0588C21.8824 23.0588 23.0588 24.2353 25.7647 24.8235L27.2941 25.1765C29.1765 25.5294 30 26.3529 30 27.5294C30 28.8235 28.7059 29.8824 26.8235 29.8824C24.8235 29.8824 23.5294 28.9412 23.2941 27.5294H21.5294C21.6471 29.8824 23.6471 31.4118 26.7059 31.4118C29.7647 31.2941 31.7647 29.7647 31.7647 27.1765Z" fill="#1D1D1F"/>
</g>
<defs>
<clipPath id="clip0_1566_14504">
<rect width="40" height="40" fill="white"/>
</clipPath>
</defs>
</svg>
