<svg width="30" height="30" viewBox="0 0 30 30" fill="none" xmlns="http://www.w3.org/2000/svg">
<g clip-path="url(#clip0_56277_33244)">
<path d="M15 25.25C20.6609 25.25 25.25 20.6609 25.25 15C25.25 9.33908 20.6609 4.75 15 4.75C9.33908 4.75 4.75 9.33908 4.75 15C4.75 20.6609 9.33908 25.25 15 25.25Z" stroke="#111111" stroke-width="1.5"/>
<path d="M15 12C15.5523 12 16 11.5523 16 11C16 10.4477 15.5523 10 15 10C14.4477 10 14 10.4477 14 11C14 11.5523 14.4477 12 15 12Z" fill="#111111"/>
<path d="M15 16C15.5523 16 16 15.5523 16 15C16 14.4477 15.5523 14 15 14C14.4477 14 14 14.4477 14 15C14 15.5523 14.4477 16 15 16Z" fill="#111111"/>
<path d="M15 20C15.5523 20 16 19.5523 16 19C16 18.4477 15.5523 18 15 18C14.4477 18 14 18.4477 14 19C14 19.5523 14.4477 20 15 20Z" fill="#111111"/>
</g>
<defs>
<clipPath id="clip0_56277_33244">
<rect width="30" height="30" fill="white"/>
</clipPath>
</defs>
</svg>
