<svg width="32" height="32" viewBox="0 0 32 32" fill="none" xmlns="http://www.w3.org/2000/svg">
<g clip-path="url(#clip0_1566_14494)">
<path d="M14.6494 2.5107C20.4634 1.64337 26.2317 0.821683 31.9999 0C31.9999 5.06705 31.9999 10.0884 31.9999 15.1555C26.2317 15.1555 20.4177 15.2468 14.6494 15.2924C14.6494 11.0471 14.6494 6.75606 14.6494 2.5107Z" fill="#1A1C1F"/>
<path d="M0 4.56492C4.34907 3.88018 8.69814 3.28674 13.093 2.73895C13.093 6.93867 13.093 11.1384 13.093 15.3381C8.74392 15.3381 4.34907 15.3837 0 15.3837V4.56492Z" fill="#1A1C1F"/>
<path d="M0 16.7076C4.34907 16.7076 8.69814 16.7532 13.093 16.7532C13.093 20.9529 13.093 25.1527 13.093 29.3524C8.74392 28.7133 4.39485 28.1655 0 27.5721V16.7076Z" fill="#1A1C1F"/>
<path d="M14.6494 16.8901C20.4634 16.8901 26.2317 16.8901 31.9999 16.8901C31.9999 21.9115 31.9999 26.9786 31.9999 32C26.2317 31.1326 20.4177 30.3566 14.6494 29.5349C14.6494 25.3352 14.6494 21.0899 14.6494 16.8901Z" fill="#1A1C1F"/>
</g>
<defs>
<clipPath id="clip0_1566_14494">
<rect width="32" height="32" fill="white"/>
</clipPath>
</defs>
</svg>
