<svg width="204" height="183" viewBox="0 0 204 183" fill="none" xmlns="http://www.w3.org/2000/svg">
<path d="M107.331 47.9799C113.125 40.8266 112.038 30.3184 104.903 24.5092C97.7684 18.7 87.2874 19.7896 81.4932 26.943C75.6991 34.0963 76.7859 44.6045 83.9207 50.4137C91.0555 56.2229 101.536 55.1333 107.331 47.9799Z" fill="#333132"/>
<path d="M175.902 54.1519C185.093 54.1519 192.544 46.6816 192.544 37.4666C192.544 28.2515 185.093 20.7813 175.902 20.7813C166.71 20.7813 159.26 28.2515 159.26 37.4666C159.26 46.6816 166.71 54.1519 175.902 54.1519Z" fill="#333132"/>
<path d="M135.15 27.52C104.453 27.5254 77.3052 48.8718 77.3052 78.9322C77.3052 108.993 103.197 123.88 135.134 123.886C167.071 123.891 192.957 108.993 192.957 78.9322C192.957 48.8718 165.847 27.5254 135.15 27.52Z" fill="white"/>
<path d="M135.15 126.577C118.089 126.577 103.412 122.529 92.7019 114.87C80.8914 106.425 74.6426 93.9974 74.6426 78.9322C74.6426 63.867 81.1545 50.0559 92.9811 39.9101C104.335 30.1896 119.286 24.8396 135.15 24.8396C150.992 24.8396 165.965 30.2219 177.319 39.9101C189.13 50.0397 195.658 63.8993 195.658 78.9322C195.658 93.9651 189.414 106.425 177.598 114.87C166.888 122.529 152.211 126.577 135.15 126.577ZM135.15 30.2327C104.228 30.2165 79.9895 51.6168 79.9895 78.9322C79.9895 92.1835 85.4546 103.099 95.7995 110.489C105.592 117.486 119.19 121.194 135.129 121.194C151.067 121.194 164.655 117.491 174.458 110.489C184.803 103.099 190.268 92.1889 190.268 78.9322C190.268 51.6168 166.045 30.2165 135.129 30.2111L135.15 30.2327Z" fill="#333132"/>
<path d="M141.436 85.9077C140.54 84.6213 138.709 83.7548 135.155 83.7548C131.601 83.7548 129.787 84.5998 128.874 85.9077C127.677 87.6193 130.163 92.3343 135.155 92.3343C140.148 92.3343 142.639 87.6193 141.436 85.9077Z" fill="#333132"/>
<path d="M135.155 96.7263C134.586 96.7263 134.04 96.4994 133.637 96.0957C133.234 95.6919 133.008 95.1443 133.008 94.5733V89.3471C133.008 88.7761 133.234 88.2285 133.637 87.8247C134.04 87.4209 134.586 87.1941 135.155 87.1941C135.725 87.1941 136.271 87.4209 136.674 87.8247C137.077 88.2285 137.303 88.7761 137.303 89.3471V94.5518C137.306 94.8363 137.252 95.1186 137.146 95.3823C137.039 95.646 136.881 95.8859 136.681 96.0881C136.482 96.2903 136.244 96.4508 135.982 96.5603C135.72 96.6699 135.439 96.7263 135.155 96.7263Z" fill="#333132"/>
<path d="M120.843 69.3462C124.29 72.8771 126.464 81.505 116.736 91.1178C107.009 100.731 97.6624 96.3979 94.5379 91.1178C91.0431 85.1973 94.9245 74.9008 102.623 69.9652C110.708 64.782 117.762 66.2029 120.843 69.3462Z" fill="#333132"/>
<path d="M115.126 84.2446C113.65 84.1991 112.251 83.5795 111.223 82.517C110.195 81.4545 109.621 80.0327 109.621 78.5527C109.621 77.0728 110.195 75.6509 111.223 74.5885C112.251 73.526 113.65 72.9064 115.126 72.8609C115.716 72.8673 116.301 72.9672 116.86 73.1569C115.624 72.4193 114.193 72.0797 112.758 72.1841C111.324 72.2886 109.956 72.832 108.84 73.7409C107.724 74.6498 106.913 75.8805 106.517 77.2664C106.121 78.6524 106.159 80.1269 106.625 81.4906C107.092 82.8543 107.965 84.0415 109.126 84.8917C110.288 85.7418 111.682 86.214 113.119 86.2443C114.557 86.2746 115.969 85.8617 117.165 85.0613C118.361 84.2608 119.284 83.1115 119.807 81.7687C119.287 82.5324 118.588 83.1571 117.773 83.5886C116.957 84.0201 116.048 84.2453 115.126 84.2446Z" fill="white"/>
<path d="M109.451 78.55C109.444 79.768 109.828 80.9559 110.546 81.9387C111.263 82.9215 112.277 83.6472 113.436 84.009C114.596 84.3707 115.842 84.3493 116.989 83.9479C118.135 83.5465 119.123 82.7864 119.807 81.7795C120.13 80.964 120.295 80.0947 120.295 79.2175C120.294 77.9979 119.977 76.7996 119.374 75.74C118.772 74.6805 117.905 73.7959 116.86 73.1731C116.301 72.9833 115.716 72.8834 115.126 72.877C113.624 72.877 112.183 73.4742 111.119 74.5376C110.055 75.6011 109.456 77.044 109.451 78.55Z" fill="#333132"/>
<path d="M115.126 75.7781C115.126 76.3264 114.964 76.8623 114.66 77.3181C114.356 77.774 113.924 78.1292 113.419 78.339C112.914 78.5488 112.358 78.6037 111.822 78.4968C111.285 78.3898 110.793 78.1258 110.406 77.7382C110.02 77.3505 109.756 76.8566 109.65 76.3189C109.543 75.7812 109.598 75.2239 109.807 74.7174C110.016 74.2109 110.371 73.778 110.825 73.4734C111.28 73.1688 111.814 73.0062 112.361 73.0062C112.724 73.0062 113.084 73.0779 113.419 73.2172C113.755 73.3565 114.059 73.5607 114.316 73.8181C114.573 74.0755 114.777 74.3811 114.915 74.7174C115.054 75.0537 115.126 75.4141 115.126 75.7781Z" fill="white"/>
<path d="M149.468 69.3462C146.021 72.8771 143.852 81.505 153.58 91.1178C163.307 100.731 172.654 96.3979 175.773 91.1178C179.268 85.1973 175.392 74.9008 167.688 69.9652C159.608 64.782 152.549 66.2029 149.468 69.3462Z" fill="#333132"/>
<path d="M155.185 84.2446C156.012 84.2574 156.833 84.0886 157.589 83.7502C158.344 83.4118 159.017 82.912 159.56 82.2856C160.103 81.6592 160.502 80.9214 160.731 80.1239C160.96 79.3264 161.012 78.4884 160.884 77.6686C160.755 76.8488 160.45 76.0671 159.989 75.378C159.528 74.6889 158.922 74.1092 158.214 73.6794C157.506 73.2497 156.713 72.9802 155.89 72.89C155.067 72.7997 154.235 72.8908 153.451 73.1569C154.686 72.4193 156.118 72.0797 157.552 72.1841C158.987 72.2886 160.354 72.832 161.471 73.7409C162.587 74.6498 163.398 75.8805 163.794 77.2664C164.19 78.6524 164.152 80.1269 163.685 81.4906C163.219 82.8543 162.346 84.0415 161.184 84.8917C160.023 85.7418 158.629 86.214 157.191 86.2443C155.754 86.2746 154.341 85.8617 153.145 85.0613C151.949 84.2608 151.027 83.1115 150.504 81.7687C151.025 82.5317 151.723 83.156 152.539 83.5874C153.354 84.0188 154.263 84.2444 155.185 84.2446Z" fill="white"/>
<path d="M160.865 78.5501C160.869 79.7676 160.484 80.9546 159.766 81.9365C159.048 82.9183 158.035 83.6433 156.875 84.0048C155.715 84.3662 154.47 84.3451 153.324 83.9446C152.177 83.544 151.188 82.7851 150.504 81.7795C150.183 80.9636 150.019 80.0944 150.021 79.2175C150.022 77.9985 150.339 76.8008 150.94 75.7414C151.541 74.6819 152.406 73.797 153.451 73.1731C154.3 72.8854 155.205 72.8054 156.091 72.94C156.976 73.0745 157.817 73.4196 158.543 73.9464C159.269 74.4733 159.858 75.1665 160.262 75.9683C160.666 76.7701 160.873 77.6572 160.865 78.5554V78.5501Z" fill="#333132"/>
<path d="M155.185 75.7781C155.184 76.3279 155.346 76.8656 155.65 77.3232C155.954 77.7807 156.386 78.1375 156.893 78.3484C157.399 78.5592 157.956 78.6147 158.494 78.5077C159.032 78.4007 159.526 78.1361 159.914 77.7474C160.302 77.3586 160.566 76.8633 160.672 76.324C160.779 75.7848 160.724 75.2259 160.513 74.7182C160.303 74.2105 159.947 73.7768 159.491 73.472C159.034 73.1673 158.498 73.0052 157.95 73.0062C157.587 73.0062 157.227 73.0779 156.892 73.2172C156.556 73.3565 156.252 73.5607 155.995 73.8181C155.738 74.0755 155.534 74.3811 155.396 74.7174C155.257 75.0537 155.185 75.4141 155.185 75.7781Z" fill="white"/>
<path d="M197.853 148.687H6.14686C5.43496 148.687 4.75222 148.404 4.24883 147.899C3.74545 147.395 3.46265 146.71 3.46265 145.996C3.46265 145.283 3.74545 144.598 4.24883 144.093C4.75222 143.589 5.43496 143.305 6.14686 143.305H197.853C198.565 143.305 199.248 143.589 199.751 144.093C200.255 144.598 200.537 145.283 200.537 145.996C200.537 146.71 200.255 147.395 199.751 147.899C199.248 148.404 198.565 148.687 197.853 148.687Z" fill="#333132"/>
<path d="M86.1686 43.5648H42.4481C31.7715 43.5648 23.1165 52.2423 23.1165 62.9466V150.905C23.1165 161.609 31.7715 170.287 42.4481 170.287H86.1686C96.8452 170.287 105.5 161.609 105.5 150.905V62.9466C105.5 52.2423 96.8452 43.5648 86.1686 43.5648Z" fill="white"/>
<path d="M86.1684 46.2559C90.5822 46.2559 94.8152 48.0139 97.9362 51.143C101.057 54.2721 102.811 58.516 102.811 62.9412V150.91C102.811 155.336 101.057 159.58 97.9362 162.709C94.8152 165.838 90.5822 167.596 86.1684 167.596H42.448C38.0343 167.596 33.8013 165.838 30.6803 162.709C27.5593 159.58 25.8059 155.336 25.8059 150.91V62.9735C25.8059 58.5483 27.5593 54.3043 30.6803 51.1752C33.8013 48.0461 38.0343 46.2882 42.448 46.2882H86.1684M86.1684 40.9059H42.448C36.6131 40.9144 31.0196 43.2421 26.8936 47.3788C22.7677 51.5154 20.446 57.1234 20.4375 62.9735V150.91C20.446 156.76 22.7677 162.369 26.8936 166.505C31.0196 170.642 36.6131 172.97 42.448 172.978H86.1684C92.0034 172.97 97.5969 170.642 101.723 166.505C105.849 162.369 108.17 156.76 108.179 150.91V62.9735C108.17 57.1234 105.849 51.5154 101.723 47.3788C97.5969 43.2421 92.0034 40.9144 86.1684 40.9059Z" fill="#333132"/>
<path d="M77.4287 109.967L79.9894 105.844C80.0533 105.741 80.0887 105.622 80.0918 105.501C80.0949 105.38 80.0657 105.26 80.0072 105.153C79.9487 105.047 79.863 104.958 79.7589 104.896C79.6549 104.834 79.5361 104.801 79.415 104.8H74.9592C74.8432 104.8 74.7293 104.83 74.6279 104.886C74.5265 104.943 74.441 105.024 74.3794 105.123L71.6952 109.461L71.663 109.509C71.5748 109.666 71.5165 109.837 71.4912 110.015C71.4912 110.069 71.4912 110.123 71.4912 110.177V110.274C71.5062 110.437 71.5479 110.597 71.6147 110.747C71.6147 110.796 71.6684 110.844 71.7006 110.893L74.7982 116.404C74.857 116.51 74.9426 116.598 75.0463 116.659C75.1501 116.72 75.2682 116.753 75.3887 116.754H79.6834C79.8019 116.753 79.9182 116.721 80.0207 116.662C80.1233 116.602 80.2086 116.517 80.2682 116.414C80.3278 116.312 80.3597 116.195 80.3607 116.076C80.3617 115.957 80.3318 115.84 80.2739 115.737L77.4233 110.661C77.3604 110.556 77.3271 110.436 77.3271 110.314C77.3271 110.192 77.3604 110.072 77.4233 109.967" fill="#333055"/>
<path d="M64.421 102.152C64.4411 102.789 64.2696 103.418 63.9286 103.957C63.5876 104.495 63.093 104.919 62.5089 105.172C61.9249 105.425 61.2784 105.496 60.6535 105.376C60.0285 105.257 59.454 104.951 59.0045 104.5C58.5549 104.048 58.2512 103.471 58.1327 102.845C58.0142 102.218 58.0863 101.57 58.3399 100.985C58.5934 100.4 59.0165 99.9045 59.5543 99.5636C60.0921 99.2226 60.7197 99.0517 61.3557 99.073C62.161 99.0999 62.926 99.4331 63.4953 100.005C64.0646 100.577 64.3956 101.344 64.421 102.152Z" fill="#4E52A3"/>
<path d="M63.1111 116.754H59.3532C59.2639 116.754 59.1755 116.736 59.0931 116.702C59.0107 116.667 58.9359 116.617 58.873 116.553C58.8101 116.49 58.7604 116.415 58.7267 116.332C58.693 116.249 58.6761 116.16 58.6768 116.07V107.609C58.6761 107.52 58.6931 107.432 58.7268 107.349C58.7605 107.266 58.8103 107.191 58.8733 107.128C58.9363 107.065 59.0111 107.015 59.0935 106.981C59.1759 106.948 59.2642 106.93 59.3532 106.931H63.1111C63.2004 106.93 63.2889 106.948 63.3716 106.981C63.4543 107.015 63.5295 107.065 63.5929 107.128C63.6563 107.191 63.7066 107.266 63.7409 107.349C63.7752 107.431 63.7929 107.52 63.7929 107.609V116.07C63.7929 116.252 63.7211 116.426 63.5932 116.554C63.4653 116.682 63.2919 116.754 63.1111 116.754Z" fill="#333055"/>
<path d="M87.1294 116.679H83.3715C83.1907 116.679 83.0173 116.607 82.8894 116.478C82.7615 116.35 82.6897 116.176 82.6897 115.995V107.534C82.6897 107.445 82.7074 107.356 82.7417 107.273C82.776 107.191 82.8263 107.116 82.8897 107.053C82.9531 106.99 83.0283 106.94 83.111 106.906C83.1937 106.872 83.2822 106.855 83.3715 106.856H87.1294C87.2184 106.855 87.3067 106.872 87.3891 106.906C87.4715 106.94 87.5463 106.99 87.6093 107.053C87.6722 107.116 87.722 107.191 87.7558 107.274C87.7895 107.356 87.8065 107.445 87.8058 107.534V115.995C87.8065 116.085 87.7895 116.173 87.7559 116.256C87.7222 116.339 87.6725 116.415 87.6096 116.478C87.5467 116.542 87.4719 116.592 87.3895 116.627C87.3071 116.661 87.2187 116.679 87.1294 116.679Z" fill="#333055"/>
<path d="M70.5625 116.754H66.8046C66.7153 116.754 66.6269 116.736 66.5445 116.702C66.4621 116.667 66.3873 116.617 66.3244 116.553C66.2615 116.49 66.2118 116.415 66.1781 116.332C66.1445 116.249 66.1275 116.16 66.1282 116.07V99.7565C66.1275 99.667 66.1445 99.5782 66.1781 99.4953C66.2118 99.4124 66.2615 99.337 66.3244 99.2735C66.3873 99.21 66.4621 99.1595 66.5445 99.1251C66.6269 99.0907 66.7153 99.073 66.8046 99.073H70.5625C70.652 99.073 70.7407 99.0906 70.8234 99.125C70.9061 99.1593 70.9813 99.2097 71.0446 99.2732C71.1079 99.3366 71.1581 99.412 71.1924 99.4949C71.2267 99.5779 71.2443 99.6668 71.2443 99.7565V116.07C71.2443 116.16 71.2267 116.249 71.1924 116.332C71.1581 116.415 71.1079 116.49 71.0446 116.554C70.9813 116.617 70.9061 116.668 70.8234 116.702C70.7407 116.736 70.652 116.754 70.5625 116.754Z" fill="#333055"/>
<path d="M88.4126 102.076C88.4338 102.714 88.2633 103.343 87.9232 103.882C87.5832 104.422 87.0893 104.846 86.5057 105.1C85.9221 105.354 85.2758 105.427 84.6506 105.308C84.0255 105.189 83.4504 104.884 83.0001 104.434C82.5498 103.983 82.245 103.407 82.1254 102.78C82.0058 102.154 82.0769 101.506 82.3294 100.92C82.5819 100.335 83.0041 99.8386 83.5413 99.4967C84.0785 99.1549 84.7059 98.9828 85.3418 99.003C86.1472 99.0285 86.9128 99.3603 87.4831 99.9311C88.0534 100.502 88.3857 101.269 88.4126 102.076Z" fill="#4E52A3"/>
<mask id="mask0_702_5166" style="mask-type:luminance" maskUnits="userSpaceOnUse" x="40" y="97" width="17" height="20">
<path d="M45.2451 108.185V105.494C45.2334 104.859 45.4115 104.234 45.7564 103.701C46.1013 103.168 46.5974 102.751 47.1807 102.503C47.7641 102.254 48.4082 102.186 49.0303 102.308C49.6524 102.429 50.2241 102.735 50.6718 103.184C51.1196 103.634 51.423 104.208 51.5431 104.832C51.6632 105.456 51.5946 106.101 51.3459 106.686C51.0972 107.27 50.68 107.767 50.1477 108.112C49.6154 108.457 48.9924 108.634 48.3587 108.621H45.6745C45.5535 108.621 45.4374 108.573 45.3519 108.487C45.2663 108.401 45.2182 108.285 45.2182 108.164M40.1719 105.311V116.076C40.171 116.179 40.1938 116.282 40.2385 116.375C40.2832 116.468 40.3485 116.55 40.4296 116.614C40.5376 116.699 40.6684 116.749 40.8052 116.759C40.942 116.768 41.0786 116.737 41.1973 116.668L45.3041 113.788H48.4822C49.7319 113.787 50.9654 113.504 52.0911 112.96C53.2168 112.416 54.2059 111.624 54.9851 110.645C55.7642 109.665 56.3134 108.522 56.5919 107.301C56.8704 106.079 56.8711 104.811 56.5939 103.589C56.2653 102.059 55.5069 100.655 54.4082 99.5425C53.3095 98.4305 51.9164 97.6569 50.3934 97.3129C49.7764 97.1755 49.1464 97.1051 48.5144 97.103C46.3302 97.1028 44.2336 97.9642 42.6776 99.501C41.1216 101.038 40.2312 103.127 40.1987 105.316" fill="white"/>
</mask>
<g mask="url(#mask0_702_5166)">
<path d="M57.7964 97.103H40.1987V116.808H57.7964V97.103Z" fill="url(#paint0_linear_702_5166)"/>
</g>
<path d="M38.5881 70.3689H23.8464C19.6784 70.3689 15.6808 72.0274 12.7316 74.9803C9.78235 77.9331 8.12263 81.9388 8.11694 86.1176C8.11624 88.1891 8.52257 90.2404 9.31274 92.1543C10.1029 94.0683 11.2614 95.8074 12.7221 97.2724C14.1828 98.7374 15.917 99.8995 17.8258 100.692C19.7345 101.485 21.7803 101.893 23.8464 101.893H30.9274C31.8413 101.893 32.7315 101.601 33.4684 101.059C34.2053 100.517 34.7505 99.7536 35.0248 98.8795C35.299 98.0054 35.288 97.0664 34.9933 96.199C34.6986 95.3316 34.1355 94.5811 33.3861 94.0566C33.951 93.6595 34.4121 93.1317 34.7304 92.5181C35.0488 91.9044 35.215 91.2229 35.215 90.5312C35.215 89.8395 35.0488 89.1579 34.7304 88.5443C34.4121 87.9306 33.951 87.4029 33.3861 87.0057C33.8718 86.6649 34.2819 86.2269 34.5906 85.7194C34.8992 85.2118 35.0996 84.6457 35.1793 84.0567C35.259 83.4676 35.2162 82.8684 35.0535 82.2968C34.8909 81.7252 34.612 81.1935 34.2343 80.7353H38.5881C39.9325 80.6919 41.2073 80.1259 42.143 79.1571C43.0787 78.1883 43.6019 76.8926 43.6019 75.544C43.6019 74.1954 43.0787 72.8997 42.143 71.9309C41.2073 70.9621 39.9325 70.3961 38.5881 70.3527V70.3689Z" fill="#333132"/>
<path d="M146.558 123.218C151.975 122.728 159.442 121.835 167.43 117.744C175.419 113.654 179.386 110.031 179.386 110.031C179.386 110.031 185.227 122.379 178.457 132.707C169.744 145.996 153.709 150.83 139.525 150.83C123.769 150.83 103.654 143.58 101.248 132.427C98.108 117.895 112.361 114.666 119.807 117.464C127.081 120.188 138.414 123.95 146.558 123.218Z" fill="#333132"/>
<path d="M138.328 153.629C134.167 153.635 130.016 153.235 125.932 152.434C113.703 149.985 104.061 144.113 100.137 136.728C96.9965 130.807 97.571 123.401 101.538 118.713C104.104 115.683 110.219 111.221 122.416 115.349C140.76 121.555 150.455 122.739 150.552 122.75C151.26 122.831 151.906 123.191 152.349 123.75C152.792 124.31 152.995 125.022 152.914 125.732C152.833 126.441 152.474 127.089 151.916 127.533C151.358 127.978 150.648 128.181 149.94 128.1C149.527 128.052 139.67 126.867 120.698 120.446C113.886 118.143 108.539 118.762 105.634 122.196C103.052 125.242 102.741 130.178 104.877 134.198C108.05 140.178 116.317 145.022 126.985 147.154C139.488 149.656 157.585 148.451 170.785 137.562C184.421 126.335 177.453 112.265 177.152 111.7C176.824 111.067 176.759 110.329 176.973 109.648C177.187 108.967 177.662 108.399 178.293 108.07C178.925 107.74 179.661 107.675 180.34 107.89C181.019 108.104 181.585 108.58 181.914 109.213C182.011 109.396 191.255 127.675 174.194 141.723C163.533 150.501 150.122 153.629 138.328 153.629Z" fill="#333132"/>
<defs>
<linearGradient id="paint0_linear_702_5166" x1="40.1612" y1="107.329" x2="57.8769" y2="107.329" gradientUnits="userSpaceOnUse">
<stop stop-color="#676CB2"/>
<stop offset="1" stop-color="#4E52A3"/>
</linearGradient>
</defs>
</svg>
