<svg width="20" height="20" viewBox="0 0 20 20" fill="none" xmlns="http://www.w3.org/2000/svg">
<path d="M5.99902 4.56657L8.63007 2.51331C8.96956 2.1711 9.73341 2 10.2426 2H13.4678C14.4863 2 15.5896 2.76997 15.8442 3.7966L17.8812 10.0419C18.3055 11.2396 17.5417 12.2663 16.2686 12.2663H12.8737C12.3645 12.2663 11.9401 12.694 12.025 13.2929L12.4493 16.0306C12.6191 16.8005 12.1098 17.6561 11.346 17.9127C10.667 18.1694 9.81828 17.8272 9.47879 17.3139L5.99902 12.0952" stroke="#111111" stroke-width="1.5" stroke-miterlimit="10"/>
<path d="M1.99902 4.53676V12.4632C1.99902 13.5956 2.47902 14 3.59902 14H4.39902C5.51902 14 5.99902 13.5956 5.99902 12.4632V4.53676C5.99902 3.40441 5.51902 3 4.39902 3H3.59902C2.47902 3 1.99902 3.40441 1.99902 4.53676Z" stroke="#111111" stroke-width="1.5" stroke-linecap="round" stroke-linejoin="round"/>
</svg>
