<svg width="48" height="48" viewBox="0 0 48 48" fill="none" xmlns="http://www.w3.org/2000/svg">
<path fill-rule="evenodd" clip-rule="evenodd" d="M2.5 12C2.5 6.75329 6.75329 2.5 12 2.5H36C41.2466 2.5 45.5 6.75328 45.5 12V36C45.5 41.2466 41.2466 45.5 36 45.5H12C6.75328 45.5 2.5 41.2466 2.5 36V12ZM12 5.5C8.41015 5.5 5.5 8.41015 5.5 12V36C5.5 39.5898 8.41016 42.5 12 42.5H36C39.5898 42.5 42.5 39.5898 42.5 36V12C42.5 8.41016 39.5898 5.5 36 5.5H12ZM36 10.5C36.8284 10.5 37.5 11.1716 37.5 12V12.0434C37.5 12.8718 36.8284 13.5434 36 13.5434C35.1716 13.5434 34.5 12.8718 34.5 12.0434V12C34.5 11.1716 35.1716 10.5 36 10.5ZM24 16.6111C19.9192 16.6111 16.6111 19.9192 16.6111 24C16.6111 28.0808 19.9192 31.3888 24 31.3888C28.0808 31.3888 31.3888 28.0808 31.3888 24C31.3888 19.9192 28.0808 16.6111 24 16.6111ZM13.6111 24C13.6111 18.2624 18.2624 13.6111 24 13.6111C29.7376 13.6111 34.3888 18.2624 34.3888 24C34.3888 29.7376 29.7376 34.3888 24 34.3888C18.2624 34.3888 13.6111 29.7376 13.6111 24Z" fill="white"/>
</svg>
