<svg width="205" height="183" viewBox="0 0 205 183" fill="none" xmlns="http://www.w3.org/2000/svg">
<path d="M94.6596 51.4607C102.388 51.4607 108.654 45.1953 108.654 37.4666C108.654 29.7378 102.388 23.4724 94.6596 23.4724C86.9309 23.4724 80.6655 29.7378 80.6655 37.4666C80.6655 45.1953 86.9309 51.4607 94.6596 51.4607Z" fill="#4D4D4F"/>
<path d="M112.061 43.5383C113.289 35.9077 108.098 28.7266 100.468 27.4989C92.8373 26.2713 85.6562 31.4618 84.4285 39.0925C83.2008 46.7231 88.3914 53.9041 96.022 55.1318C103.653 56.3595 110.834 51.1689 112.061 43.5383Z" fill="#414042"/>
<path d="M94.6594 54.1518C91.3594 54.1518 88.1335 53.1733 85.3896 51.3399C82.6457 49.5065 80.5071 46.9006 79.2442 43.8517C77.9814 40.8029 77.6509 37.448 78.2947 34.2114C78.9385 30.9748 80.5277 28.0017 82.8611 25.6683C85.1946 23.3348 88.1677 21.7457 91.4043 21.1019C94.6409 20.4581 97.9958 20.7885 101.045 22.0513C104.093 23.3142 106.699 25.4528 108.533 28.1967C110.366 30.9406 111.345 34.1665 111.345 37.4666C111.345 41.8918 109.587 46.1357 106.458 49.2648C103.329 52.3939 99.0846 54.1518 94.6594 54.1518ZM94.6594 26.1636C92.4239 26.1636 90.2386 26.8265 88.3798 28.0685C86.5211 29.3105 85.0724 31.0758 84.2169 33.1411C83.3614 35.2064 83.1375 37.4791 83.5737 39.6716C84.0098 41.8642 85.0863 43.8782 86.667 45.4589C88.2478 47.0397 90.2618 48.1162 92.4543 48.5523C94.6469 48.9884 96.9195 48.7646 98.9849 47.9091C101.05 47.0536 102.815 45.6049 104.057 43.7461C105.299 41.8874 105.962 39.7021 105.962 37.4666C105.962 34.4688 104.772 31.5939 102.652 29.4742C100.532 27.3545 97.6571 26.1636 94.6594 26.1636Z" fill="#333132"/>
<path d="M176.358 51.4607C184.087 51.4607 190.352 45.1953 190.352 37.4666C190.352 29.7378 184.087 23.4724 176.358 23.4724C168.63 23.4724 162.364 29.7378 162.364 37.4666C162.364 45.1953 168.63 51.4607 176.358 51.4607Z" fill="#4D4D4F"/>
<path d="M174.984 55.1414C182.615 53.9137 187.806 46.7326 186.578 39.102C185.35 31.4714 178.169 26.2808 170.539 27.5085C162.908 28.7362 157.717 35.9172 158.945 43.5479C160.173 51.1785 167.354 56.3691 174.984 55.1414Z" fill="#414042"/>
<path d="M176.358 54.1518C173.058 54.1518 169.832 53.1733 167.088 51.3399C164.344 49.5065 162.206 46.9006 160.943 43.8517C159.68 40.8029 159.35 37.448 159.993 34.2114C160.637 30.9748 162.226 28.0017 164.56 25.6683C166.893 23.3348 169.866 21.7457 173.103 21.1019C176.34 20.4581 179.695 20.7885 182.743 22.0513C185.792 23.3142 188.398 25.4528 190.231 28.1967C192.065 30.9406 193.043 34.1665 193.043 37.4666C193.043 41.8918 191.286 46.1357 188.156 49.2648C185.027 52.3939 180.783 54.1518 176.358 54.1518ZM176.358 26.1636C174.123 26.1636 171.937 26.8265 170.079 28.0685C168.22 29.3105 166.771 31.0758 165.916 33.1411C165.06 35.2064 164.836 37.4791 165.272 39.6716C165.709 41.8642 166.785 43.8782 168.366 45.4589C169.947 47.0397 171.961 48.1162 174.153 48.5523C176.346 48.9884 178.618 48.7646 180.684 47.9091C182.749 47.0536 184.514 45.6049 185.756 43.7461C186.998 41.8874 187.661 39.7021 187.661 37.4666C187.661 34.4688 186.47 31.5939 184.351 29.4742C182.231 27.3545 179.356 26.1636 176.358 26.1636Z" fill="#333132"/>
<path d="M135.501 27.52C104.724 27.5254 77.5059 48.8718 77.5059 78.9322C77.5059 108.993 103.465 123.88 135.485 123.886C167.504 123.891 193.458 108.993 193.458 78.9322C193.458 48.8718 166.277 27.5254 135.501 27.52Z" fill="white"/>
<path d="M135.501 126.577C118.396 126.577 103.68 122.529 92.9427 114.87C81.1015 106.425 74.8311 93.9974 74.8311 78.9322C74.8311 63.867 81.3652 50.0559 93.2226 39.9101C104.606 30.1896 119.596 24.8396 135.501 24.8396C151.384 24.8396 166.396 30.2219 177.779 39.9101C189.62 50.0397 196.165 63.8993 196.165 78.9322C196.165 93.9651 189.906 106.425 178.059 114.87C167.321 122.529 152.606 126.577 135.501 126.577ZM135.501 30.2327C104.499 30.2165 80.1973 51.6168 80.1973 78.9322C80.1973 92.1835 85.6819 103.099 96.0483 110.489C105.871 117.486 119.505 121.194 135.485 121.194C151.465 121.194 165.088 117.491 174.916 110.489C185.288 103.099 190.767 92.1889 190.767 78.9322C190.767 51.6168 166.482 30.2165 135.485 30.2111L135.501 30.2327Z" fill="#333132"/>
<path d="M141.803 85.9077C140.904 84.6213 139.069 83.7548 135.506 83.7548C131.943 83.7548 130.124 84.5998 129.209 85.9077C128.008 87.6193 130.5 92.3343 135.506 92.3343C140.511 92.3343 143.009 87.6193 141.803 85.9077Z" fill="#333132"/>
<path d="M135.506 96.7263C134.935 96.7263 134.387 96.4994 133.984 96.0957C133.58 95.6919 133.353 95.1443 133.353 94.5733V89.3471C133.353 88.7761 133.58 88.2285 133.984 87.8247C134.387 87.4209 134.935 87.1941 135.506 87.1941C136.077 87.1941 136.625 87.4209 137.028 87.8247C137.432 88.2285 137.659 88.7761 137.659 89.3471V94.5518C137.662 94.8363 137.608 95.1186 137.501 95.3823C137.394 95.646 137.236 95.8859 137.036 96.0881C136.836 96.2903 136.597 96.4508 136.335 96.5603C136.072 96.6699 135.791 96.7263 135.506 96.7263Z" fill="#333132"/>
<path d="M121.157 69.3462C124.612 72.8771 126.792 81.505 117.039 91.1178C107.286 100.731 97.9155 96.3979 94.783 91.1178C91.2791 85.1973 95.1705 74.9008 102.889 69.9652C110.995 64.782 118.067 66.2029 121.157 69.3462Z" fill="#333132"/>
<path d="M115.425 84.2446C113.945 84.1991 112.542 83.5795 111.512 82.517C110.481 81.4545 109.905 80.0327 109.905 78.5527C109.905 77.0728 110.481 75.6509 111.512 74.5885C112.542 73.526 113.945 72.9064 115.425 72.8609C116.016 72.8673 116.603 72.9672 117.163 73.1569C115.924 72.4193 114.489 72.0797 113.051 72.1841C111.613 72.2886 110.242 72.832 109.123 73.7409C108.004 74.6498 107.191 75.8805 106.793 77.2664C106.396 78.6524 106.434 80.1269 106.902 81.4906C107.37 82.8543 108.245 84.0415 109.41 84.8917C110.574 85.7418 111.972 86.214 113.413 86.2443C114.854 86.2746 116.27 85.8617 117.47 85.0613C118.669 84.2608 119.593 83.1115 120.118 81.7687C119.597 82.5324 118.896 83.1571 118.078 83.5886C117.26 84.0201 116.35 84.2453 115.425 84.2446Z" fill="white"/>
<path d="M109.735 78.55C109.729 79.768 110.113 80.9559 110.833 81.9387C111.552 82.9215 112.568 83.6472 113.731 84.009C114.894 84.3707 116.142 84.3493 117.292 83.9479C118.442 83.5465 119.433 82.7864 120.118 81.7795C120.441 80.964 120.608 80.0947 120.608 79.2175C120.606 77.9979 120.288 76.7996 119.684 75.74C119.08 74.6805 118.212 73.7959 117.163 73.1731C116.603 72.9833 116.016 72.8834 115.425 72.877C113.919 72.877 112.474 73.4742 111.407 74.5376C110.341 75.6011 109.74 77.044 109.735 78.55Z" fill="#333132"/>
<path d="M115.425 75.7781C115.425 76.3264 115.262 76.8623 114.958 77.3181C114.653 77.774 114.22 78.1292 113.714 78.339C113.207 78.5488 112.65 78.6037 112.112 78.4968C111.574 78.3898 111.08 78.1258 110.693 77.7382C110.305 77.3505 110.041 76.8566 109.934 76.3189C109.827 75.7812 109.882 75.2239 110.092 74.7174C110.302 74.2109 110.657 73.778 111.113 73.4734C111.569 73.1688 112.105 73.0062 112.653 73.0062C113.017 73.0062 113.377 73.0779 113.714 73.2172C114.05 73.3565 114.355 73.5607 114.613 73.8181C114.87 74.0755 115.074 74.3811 115.214 74.7174C115.353 75.0537 115.425 75.4141 115.425 75.7781Z" fill="white"/>
<path d="M149.856 69.3462C146.4 72.8771 144.226 81.505 153.979 91.1178C163.731 100.731 173.102 96.3979 176.229 91.1178C179.733 85.1973 175.847 74.9008 168.123 69.9652C160.023 64.782 152.945 66.2029 149.856 69.3462Z" fill="#333132"/>
<path d="M155.587 84.2446C156.417 84.2574 157.24 84.0886 157.997 83.7502C158.755 83.4118 159.43 82.912 159.974 82.2856C160.518 81.6592 160.919 80.9214 161.148 80.1239C161.377 79.3264 161.429 78.4884 161.301 77.6686C161.172 76.8488 160.866 76.0671 160.404 75.378C159.942 74.6889 159.334 74.1092 158.624 73.6794C157.915 73.2497 157.119 72.9802 156.294 72.89C155.47 72.7997 154.635 72.8908 153.849 73.1569C155.088 72.4193 156.523 72.0797 157.961 72.1841C159.399 72.2886 160.77 72.832 161.889 73.7409C163.009 74.6498 163.822 75.8805 164.219 77.2664C164.616 78.6524 164.578 80.1269 164.11 81.4906C163.642 82.8543 162.767 84.0415 161.602 84.8917C160.438 85.7418 159.041 86.214 157.599 86.2443C156.158 86.2746 154.742 85.8617 153.543 85.0613C152.343 84.2608 151.419 83.1115 150.894 81.7687C151.416 82.5317 152.117 83.156 152.934 83.5874C153.752 84.0188 154.663 84.2444 155.587 84.2446Z" fill="white"/>
<path d="M161.282 78.5501C161.287 79.7676 160.901 80.9546 160.181 81.9365C159.461 82.9183 158.445 83.6433 157.282 84.0048C156.119 84.3662 154.871 84.3451 153.721 83.9446C152.571 83.544 151.581 82.7851 150.894 81.7795C150.573 80.9636 150.408 80.0944 150.41 79.2175C150.411 77.9985 150.729 76.8008 151.332 75.7414C151.934 74.6819 152.802 73.797 153.849 73.1731C154.7 72.8854 155.607 72.8054 156.496 72.94C157.384 73.0745 158.227 73.4196 158.954 73.9464C159.682 74.4733 160.273 75.1665 160.678 75.9683C161.083 76.7701 161.29 77.6572 161.282 78.5554V78.5501Z" fill="#333132"/>
<path d="M155.588 75.7781C155.587 76.3279 155.749 76.8656 156.054 77.3232C156.358 77.7807 156.792 78.1375 157.3 78.3484C157.808 78.5592 158.366 78.6147 158.906 78.5077C159.445 78.4007 159.94 78.1361 160.329 77.7474C160.718 77.3586 160.982 76.8633 161.089 76.324C161.196 75.7848 161.141 75.2259 160.93 74.7182C160.719 74.2105 160.362 73.7768 159.905 73.472C159.447 73.1673 158.91 73.0052 158.36 73.0062C157.996 73.0062 157.635 73.0779 157.299 73.2172C156.963 73.3565 156.657 73.5607 156.4 73.8181C156.142 74.0755 155.938 74.3811 155.799 74.7174C155.66 75.0537 155.588 75.4141 155.588 75.7781Z" fill="white"/>
<path d="M198.367 148.687H6.16286C5.44911 148.687 4.7646 148.404 4.25991 147.899C3.75521 147.395 3.47168 146.71 3.47168 145.996C3.47168 145.283 3.75521 144.598 4.25991 144.093C4.7646 143.589 5.44911 143.305 6.16286 143.305H198.367C199.08 143.305 199.765 143.589 200.27 144.093C200.774 144.598 201.058 145.283 201.058 145.996C201.058 146.71 200.774 147.395 200.27 147.899C199.765 148.404 199.08 148.687 198.367 148.687Z" fill="#333132"/>
<path d="M86.392 43.5648H42.5581C31.8538 43.5648 23.1763 52.2423 23.1763 62.9466V150.905C23.1763 161.609 31.8538 170.287 42.5581 170.287H86.392C97.0963 170.287 105.774 161.609 105.774 150.905V62.9466C105.774 52.2423 97.0963 43.5648 86.392 43.5648Z" fill="white"/>
<path d="M86.3922 46.2559C90.8175 46.2559 95.0614 48.0139 98.1905 51.143C101.32 54.2721 103.078 58.516 103.078 62.9412V150.91C103.078 155.336 101.32 159.58 98.1905 162.709C95.0614 165.838 90.8175 167.596 86.3922 167.596H42.5584C38.1332 167.596 33.8892 165.838 30.7601 162.709C27.631 159.58 25.8731 155.336 25.8731 150.91V62.9735C25.8731 58.5483 27.631 54.3043 30.7601 51.1752C33.8892 48.0461 38.1332 46.2882 42.5584 46.2882H86.3922M86.3922 40.9059H42.5584C36.7083 40.9144 31.1003 43.2421 26.9636 47.3788C22.827 51.5154 20.4993 57.1234 20.4907 62.9735V150.91C20.4993 156.76 22.827 162.369 26.9636 166.505C31.1003 170.642 36.7083 172.97 42.5584 172.978H86.3922C92.2423 172.97 97.8504 170.642 101.987 166.505C106.124 162.369 108.451 156.76 108.46 150.91V62.9735C108.451 57.1234 106.124 51.5154 101.987 47.3788C97.8504 43.2421 92.2423 40.9144 86.3922 40.9059Z" fill="#333132"/>
<path d="M65.8316 79.4274C63.3587 79.4309 60.9109 79.923 58.6289 80.8755C56.3468 81.828 54.2755 83.2221 52.5339 84.9777C50.7923 86.7333 49.4149 88.8157 48.4807 91.1053C47.5465 93.3949 47.0739 95.8466 47.0903 98.3194V114.693C47.0903 115.362 47.3562 116.004 47.8296 116.478C48.303 116.951 48.9451 117.217 49.6146 117.217H65.8316C68.3397 117.259 70.8312 116.802 73.1607 115.871C75.4902 114.941 77.6111 113.556 79.3998 111.797C81.1885 110.038 82.6091 107.941 83.5788 105.627C84.5485 103.314 85.048 100.831 85.048 98.3221C85.048 95.8136 84.5485 93.3303 83.5788 91.0168C82.6091 88.7033 81.1885 86.6061 79.3998 84.8473C77.6111 83.0886 75.4902 81.7036 73.1607 80.773C70.8312 79.8425 68.3397 79.385 65.8316 79.4274Z" fill="white"/>
<mask id="mask0_719_2159" style="mask-type:luminance" maskUnits="userSpaceOnUse" x="47" y="79" width="38" height="39">
<path d="M47.0903 98.3194V114.693C47.0903 115.362 47.3563 116.004 47.8297 116.478C48.3031 116.951 48.9452 117.217 49.6147 117.217H65.8317C69.5757 117.248 73.2446 116.166 76.3727 114.108C79.5009 112.051 81.9473 109.11 83.4015 105.66C84.8558 102.21 85.2524 98.4053 84.5409 94.7293C83.8295 91.0534 82.0421 87.6716 79.4056 85.0131C76.769 82.3546 73.4022 80.5392 69.7323 79.7973C66.0623 79.0554 62.2547 79.4204 58.7925 80.846C55.3304 82.2716 52.3697 84.6936 50.2863 87.8045C48.2028 90.9155 47.0905 94.5753 47.0903 98.3194Z" fill="white"/>
</mask>
<g mask="url(#mask0_719_2159)">
<g opacity="0.6">
<mask id="mask1_719_2159" style="mask-type:luminance" maskUnits="userSpaceOnUse" x="35" y="81" width="30" height="28">
<path d="M64.3836 81.435H35.5073V108.336H64.3836V81.435Z" fill="white"/>
</mask>
<g mask="url(#mask1_719_2159)">
<path d="M64.3836 98.4648L35.5073 108.336L42.1707 81.435L64.3836 98.4648Z" fill="#BE3456"/>
</g>
</g>
<g opacity="0.4">
<mask id="mask2_719_2159" style="mask-type:luminance" maskUnits="userSpaceOnUse" x="64" y="77" width="15" height="22">
<path d="M78.6955 77.226H64.3838V98.4648H78.6955V77.226Z" fill="white"/>
</mask>
<g mask="url(#mask2_719_2159)">
<path d="M78.7008 94.5141L64.3838 98.4648L64.9005 77.226L78.7008 94.5141Z" fill="#BE3456"/>
</g>
</g>
<path d="M72.6776 118.159L54.5122 121.415L67.8389 107.841L72.6776 118.159Z" fill="#BE3456"/>
<g opacity="0.8">
<mask id="mask3_719_2159" style="mask-type:luminance" maskUnits="userSpaceOnUse" x="67" y="94" width="12" height="25">
<path d="M78.7009 94.5141H67.8394V118.159H78.7009V94.5141Z" fill="white"/>
</mask>
<g mask="url(#mask3_719_2159)">
<path d="M67.8394 107.841L72.6781 118.159L78.7009 94.5141L67.8394 107.841Z" fill="#BE3456"/>
</g>
</g>
<g opacity="0.7">
<mask id="mask4_719_2159" style="mask-type:luminance" maskUnits="userSpaceOnUse" x="35" y="98" width="33" height="11">
<path d="M67.8391 98.4648H35.5073V108.336H67.8391V98.4648Z" fill="white"/>
</mask>
<g mask="url(#mask4_719_2159)">
<path d="M35.5073 108.336L64.3836 98.4648L67.8391 107.841L35.5073 108.336Z" fill="#BE3456"/>
</g>
</g>
<g opacity="0.4">
<mask id="mask5_719_2159" style="mask-type:luminance" maskUnits="userSpaceOnUse" x="78" y="76" width="22" height="30">
<path d="M99.6811 76.0042H78.7007V105.128H99.6811V76.0042Z" fill="white"/>
</mask>
<g mask="url(#mask5_719_2159)">
<path d="M94.0027 76.0042L99.6757 105.128L78.7007 94.5141L94.0027 76.0042Z" fill="#BE3456"/>
</g>
</g>
<g opacity="0.9">
<mask id="mask6_719_2159" style="mask-type:luminance" maskUnits="userSpaceOnUse" x="35" y="107" width="33" height="15">
<path d="M67.8391 107.841H35.5073V121.415H67.8391V107.841Z" fill="white"/>
</mask>
<g mask="url(#mask6_719_2159)">
<path d="M54.5124 121.415L67.8391 107.841L35.5073 108.336L54.5124 121.415Z" fill="#BE3456"/>
</g>
</g>
<g opacity="0.5">
<mask id="mask7_719_2159" style="mask-type:luminance" maskUnits="userSpaceOnUse" x="64" y="76" width="31" height="19">
<path d="M94.0028 76.0042H64.9004V94.5141H94.0028V76.0042Z" fill="white"/>
</mask>
<g mask="url(#mask7_719_2159)">
<path d="M64.9004 77.226L94.0028 76.0042L78.7007 94.5141L64.9004 77.226Z" fill="#BE3456"/>
</g>
</g>
<g opacity="0.9">
<mask id="mask8_719_2159" style="mask-type:luminance" maskUnits="userSpaceOnUse" x="72" y="94" width="28" height="25">
<path d="M99.6756 94.5141H72.6777V118.159H99.6756V94.5141Z" fill="white"/>
</mask>
<g mask="url(#mask8_719_2159)">
<path d="M78.7006 94.5141L99.6756 105.128L72.6777 118.159L78.7006 94.5141Z" fill="#BE3456"/>
</g>
</g>
<path d="M36.2501 131.782L54.5124 121.415L35.5073 108.336L36.2501 131.782Z" fill="#BE3456"/>
<g opacity="0.5">
<mask id="mask9_719_2159" style="mask-type:luminance" maskUnits="userSpaceOnUse" x="42" y="77" width="23" height="22">
<path d="M64.8952 77.226H42.1709V98.4648H64.8952V77.226Z" fill="white"/>
</mask>
<g mask="url(#mask9_719_2159)">
<path d="M64.3839 98.4648L64.9006 77.226L42.1709 81.435L64.3839 98.4648Z" fill="#BE3456"/>
</g>
</g>
<g opacity="0.6">
<mask id="mask10_719_2159" style="mask-type:luminance" maskUnits="userSpaceOnUse" x="64" y="94" width="15" height="14">
<path d="M78.6955 94.5141H64.3838V107.841H78.6955V94.5141Z" fill="white"/>
</mask>
<g mask="url(#mask10_719_2159)">
<path d="M67.8393 107.841L64.3838 98.4648L78.7008 94.5141L67.8393 107.841Z" fill="#BE3456"/>
</g>
</g>
</g>
<path d="M61.4128 98.2549C61.4138 98.517 61.3371 98.7735 61.1922 98.9919C61.0474 99.2104 60.841 99.3809 60.5991 99.482C60.3573 99.583 60.0909 99.61 59.8337 99.5595C59.5765 99.509 59.3401 99.3834 59.1544 99.1984C58.9687 99.0134 58.842 98.7775 58.7905 98.5205C58.739 98.2636 58.7649 97.9971 58.8649 97.7548C58.965 97.5125 59.1347 97.3054 59.3525 97.1597C59.5704 97.014 59.8266 96.9362 60.0887 96.9362C60.4389 96.9362 60.7749 97.0749 61.023 97.3221C61.2712 97.5692 61.4113 97.9046 61.4128 98.2549Z" fill="white"/>
<path d="M67.4787 98.2549C67.4797 98.517 67.403 98.7735 67.2582 98.9919C67.1133 99.2104 66.9069 99.3809 66.6651 99.482C66.4232 99.583 66.1568 99.61 65.8996 99.5595C65.6424 99.509 65.406 99.3834 65.2203 99.1984C65.0346 99.0134 64.9079 98.7775 64.8564 98.5205C64.8049 98.2636 64.8308 97.9971 64.9308 97.7548C65.0309 97.5125 65.2006 97.3054 65.4185 97.1597C65.6363 97.014 65.8925 96.9362 66.1546 96.9362C66.5048 96.9362 66.8408 97.0749 67.089 97.3221C67.3371 97.5692 67.4773 97.9046 67.4787 98.2549Z" fill="white"/>
<path d="M73.5446 98.2549C73.5457 98.517 73.4689 98.7735 73.3241 98.9919C73.1792 99.2104 72.9728 99.3809 72.731 99.482C72.4891 99.583 72.2227 99.61 71.9655 99.5595C71.7083 99.509 71.4719 99.3834 71.2862 99.1984C71.1005 99.0134 70.9738 98.7775 70.9223 98.5205C70.8708 98.2636 70.8967 97.9971 70.9968 97.7548C71.0968 97.5125 71.2665 97.3054 71.4844 97.1597C71.7022 97.014 71.9584 96.9362 72.2205 96.9362C72.5708 96.9362 72.9067 97.0749 73.1549 97.3221C73.403 97.5692 73.5432 97.9046 73.5446 98.2549Z" fill="white"/>
<path d="M74.6639 124.79C74.5976 124.785 74.531 124.785 74.4647 124.79L67.1878 124.887C67.1307 124.879 67.0727 124.879 67.0156 124.887C66.9176 124.906 66.8294 124.959 66.766 125.036C66.7026 125.113 66.668 125.209 66.668 125.309C66.668 125.409 66.7026 125.506 66.766 125.583C66.8294 125.66 66.9176 125.713 67.0156 125.732C67.098 125.737 67.1807 125.737 67.2632 125.732L70.2019 125.699C70.4064 125.699 70.4064 125.699 70.3795 125.888L69.9759 128.579C69.7229 130.301 69.4645 132.024 69.2116 133.746C69.2035 133.812 69.2035 133.879 69.2116 133.945C69.2216 134.041 69.2637 134.131 69.331 134.201C69.3984 134.27 69.4871 134.315 69.5829 134.327C69.6815 134.344 69.7829 134.325 69.8687 134.274C69.9546 134.223 70.0193 134.142 70.0512 134.048C70.0743 133.968 70.0922 133.887 70.105 133.805C70.1642 133.418 70.2181 133.03 70.2773 132.648C70.4495 131.464 70.6271 130.28 70.8155 129.101L71.2838 125.926C71.3214 125.662 71.3268 125.662 71.5852 125.662L74.4002 125.624C74.4915 125.632 74.5833 125.632 74.6747 125.624C74.7735 125.607 74.8631 125.556 74.9272 125.479C74.9914 125.402 75.0259 125.305 75.0245 125.204C75.0231 125.104 74.9861 125.007 74.9201 124.931C74.8541 124.855 74.7633 124.805 74.6639 124.79Z" fill="#010101"/>
<path d="M89.471 132.008C89.3946 131.946 89.2997 131.913 89.2019 131.913C89.1041 131.913 89.0091 131.946 88.9328 132.008C88.8759 132.055 88.8252 132.109 88.7821 132.169C88.5526 132.444 88.2986 132.699 88.0231 132.928C87.7679 133.154 87.4515 133.3 87.1135 133.348C87.0111 133.365 86.9057 133.353 86.8102 133.312C86.7146 133.271 86.6331 133.203 86.5753 133.116C86.4755 132.973 86.4026 132.812 86.36 132.643C86.2523 132.251 86.166 131.854 86.1017 131.453C86.0586 131.259 86.0532 131.254 86.2254 131.179C86.8982 130.877 87.5441 130.517 88.2062 130.188C88.3658 130.121 88.5175 130.036 88.6583 129.935C88.7388 129.87 88.7936 129.779 88.8129 129.677C88.8322 129.576 88.8147 129.471 88.7636 129.381C88.7125 129.291 88.6311 129.222 88.5339 129.186C88.4367 129.151 88.3301 129.151 88.2331 129.187L88.077 129.263L86.3546 130.151C86.3008 130.178 86.2524 130.237 86.1716 130.205C86.8831 128.909 87.5071 127.568 88.0393 126.189C88.0916 126.076 88.1313 125.956 88.1577 125.834C88.1767 125.731 88.157 125.625 88.1024 125.535C88.0477 125.446 87.962 125.38 87.8617 125.35C87.7602 125.31 87.6473 125.312 87.5468 125.354C87.4464 125.396 87.3663 125.476 87.3234 125.576C87.2731 125.679 87.2282 125.785 87.1889 125.893C86.6839 127.219 86.0849 128.507 85.3966 129.747C84.8925 130.705 84.2665 131.593 83.5343 132.39C83.2737 132.679 82.9662 132.923 82.6247 133.111C82.4243 133.216 82.1957 133.256 81.9716 133.224C81.7474 133.192 81.539 133.091 81.3759 132.933C81.214 132.776 81.0778 132.595 80.9723 132.395C80.8754 132.223 80.8754 132.218 81.0046 132.078C81.7283 131.276 82.3668 130.401 82.9099 129.467C83.2631 128.894 83.5673 128.293 83.8195 127.669C84.0246 127.206 84.1589 126.714 84.2178 126.211C84.2487 126.014 84.2296 125.813 84.1623 125.625C84.095 125.437 83.9817 125.27 83.8327 125.137C83.6838 125.005 83.504 124.912 83.3098 124.868C83.1157 124.823 82.9134 124.828 82.7215 124.881C82.3726 124.962 82.0478 125.124 81.7742 125.355C80.9189 126.073 80.2953 127.028 79.9819 128.1C79.5464 129.31 79.4883 130.624 79.8151 131.868C79.8332 131.913 79.8351 131.964 79.8204 132.011C79.8057 132.058 79.7753 132.099 79.7343 132.126C79.4474 132.377 79.1454 132.611 78.8301 132.826C78.4981 133.067 78.1363 133.264 77.7536 133.412C77.6297 133.46 77.4988 133.488 77.3661 133.493C77.2193 133.507 77.0725 133.465 76.9556 133.375C76.8386 133.285 76.7603 133.154 76.7364 133.009C76.6798 132.781 76.6798 132.542 76.7364 132.314C76.8613 131.696 77.0752 131.1 77.3715 130.544C77.4845 130.334 77.6029 130.124 77.7106 129.903C77.7657 129.809 77.7836 129.698 77.7606 129.591C77.7377 129.484 77.6757 129.39 77.5868 129.327C77.4972 129.265 77.3882 129.238 77.2802 129.251C77.1722 129.264 77.0726 129.316 77.0001 129.397C76.9624 129.435 76.9463 129.505 76.8763 129.499C76.4624 129.166 75.9534 128.972 75.4225 128.946C74.8916 128.92 74.366 129.063 73.9214 129.354C73.1987 129.794 72.6509 130.472 72.3713 131.27C72.216 131.675 72.1499 132.108 72.1775 132.54C72.1859 132.757 72.2428 132.969 72.3438 133.161C72.4449 133.353 72.5876 133.52 72.7616 133.649C72.9355 133.779 73.1362 133.868 73.349 133.91C73.5618 133.952 73.7813 133.945 73.9914 133.891C74.2797 133.814 74.5527 133.689 74.7987 133.52C75.0982 133.309 75.3807 133.075 75.6437 132.82C75.6868 132.777 75.7191 132.707 75.816 132.713C75.8132 132.851 75.8295 132.988 75.8644 133.122C75.9089 133.438 76.0572 133.731 76.2862 133.954C76.5151 134.177 76.8117 134.318 77.1293 134.354C77.5088 134.403 77.8942 134.339 78.238 134.171C78.8916 133.883 79.5006 133.502 80.0465 133.041C80.1165 132.987 80.1649 132.901 80.2726 132.896C80.4059 133.126 80.5667 133.339 80.7516 133.531C81.0498 133.843 81.443 134.047 81.8697 134.111C82.2963 134.175 82.7322 134.096 83.1091 133.886C83.3667 133.75 83.6071 133.584 83.8249 133.391C84.0846 133.157 84.3275 132.905 84.5515 132.637C84.8045 132.336 85.0575 132.024 85.332 131.706C85.332 131.841 85.3643 131.97 85.3858 132.099C85.428 132.545 85.5425 132.982 85.7249 133.391C85.8703 133.714 86.1274 133.973 86.4487 134.121C86.7701 134.27 87.1342 134.297 87.4742 134.198C87.8785 134.106 88.2561 133.922 88.5775 133.66C88.893 133.401 89.1847 133.115 89.4495 132.804C89.5214 132.726 89.5813 132.637 89.6271 132.54C89.6702 132.449 89.6809 132.346 89.6574 132.249C89.6339 132.151 89.5776 132.064 89.4979 132.002M76.3757 130.457C75.8905 131.239 75.2919 131.945 74.5996 132.551C74.4343 132.688 74.2537 132.806 74.0613 132.901C73.9301 132.973 73.7853 133.017 73.6361 133.03C73.499 133.044 73.3618 133.005 73.2527 132.921C73.1435 132.837 73.0708 132.714 73.0494 132.578C73.0433 132.501 73.0433 132.424 73.0494 132.347C73.0658 131.794 73.2517 131.261 73.582 130.818C73.9123 130.375 74.3709 130.044 74.8956 129.871C75.1295 129.797 75.3771 129.778 75.6195 129.814C75.862 129.851 76.093 129.942 76.295 130.081C76.5049 130.226 76.5103 130.253 76.3704 130.457M80.7408 131.093C80.7085 131.136 80.6816 131.195 80.6009 131.211C80.6009 131.12 80.5632 131.039 80.5524 130.947C80.4464 130.038 80.5552 129.116 80.87 128.256C81.1499 127.408 81.6561 126.652 82.334 126.071C82.4612 125.967 82.6004 125.878 82.7485 125.807L82.8453 125.769C83.2275 125.651 83.4266 125.818 83.3836 126.216C83.3141 126.651 83.1855 127.075 83.0014 127.476C82.4192 128.778 81.6623 129.995 80.7516 131.093" fill="#010101"/>
<path d="M58.4523 130.947L59.771 128.832C59.8049 128.779 59.8238 128.718 59.8259 128.655C59.8279 128.592 59.8131 128.53 59.7828 128.475C59.7525 128.42 59.7079 128.374 59.6537 128.342C59.5996 128.31 59.5378 128.294 59.475 128.294H57.1821C57.1228 128.295 57.0646 128.31 57.0128 128.34C56.9611 128.369 56.9176 128.41 56.8861 128.461L55.4974 130.684V130.71C55.4497 130.789 55.4203 130.877 55.4113 130.969C55.4085 130.997 55.4085 131.026 55.4113 131.055V131.103C55.4156 131.186 55.4376 131.267 55.4759 131.34C55.4881 131.368 55.5025 131.395 55.519 131.421L57.1337 134.247C57.1639 134.3 57.2077 134.345 57.2606 134.376C57.3135 134.407 57.3737 134.424 57.4351 134.424H59.6472C59.711 134.426 59.7741 134.411 59.8298 134.38C59.8856 134.349 59.9317 134.303 59.9633 134.248C59.9949 134.192 60.0107 134.129 60.0091 134.066C60.0075 134.002 59.9884 133.94 59.954 133.886L58.4416 131.329C58.4099 131.276 58.3931 131.214 58.3931 131.152C58.3931 131.089 58.4099 131.028 58.4416 130.974" fill="#221E20"/>
<path d="M51.7514 126.943C51.7589 127.265 51.6696 127.583 51.4951 127.854C51.3205 128.125 51.0688 128.338 50.7723 128.465C50.4757 128.591 50.148 128.627 49.8313 128.566C49.5146 128.504 49.2235 128.35 48.9954 128.122C48.7673 127.894 48.6128 127.603 48.5517 127.286C48.4906 126.969 48.5257 126.641 48.6526 126.345C48.7795 126.048 48.9922 125.797 49.2634 125.622C49.5347 125.448 49.852 125.358 50.1744 125.366C50.5897 125.375 50.9852 125.545 51.2789 125.838C51.5726 126.132 51.7419 126.528 51.7514 126.943Z" fill="#BE3456"/>
<path d="M51.0893 134.43H49.1462C49.0544 134.428 48.9668 134.391 48.9023 134.325C48.8379 134.26 48.8017 134.172 48.8018 134.08V129.742C48.8017 129.65 48.8379 129.562 48.9023 129.496C48.9668 129.431 49.0544 129.393 49.1462 129.392H51.0893C51.1352 129.392 51.1807 129.401 51.2231 129.418C51.2656 129.436 51.3042 129.462 51.3366 129.494C51.3691 129.527 51.3949 129.565 51.4125 129.608C51.4301 129.65 51.4391 129.696 51.4391 129.742V134.08C51.4391 134.126 51.4301 134.171 51.4125 134.214C51.3949 134.256 51.3691 134.295 51.3366 134.327C51.3042 134.36 51.2656 134.385 51.2231 134.403C51.1807 134.421 51.1352 134.43 51.0893 134.43Z" fill="#221E20"/>
<path d="M63.4418 134.392H61.4988C61.406 134.392 61.317 134.355 61.2514 134.29C61.1858 134.224 61.1489 134.135 61.1489 134.042V129.715C61.1489 129.622 61.1858 129.533 61.2514 129.467C61.317 129.402 61.406 129.365 61.4988 129.365H63.4418C63.5342 129.366 63.6223 129.404 63.6877 129.469C63.753 129.534 63.7903 129.622 63.7917 129.715V134.021C63.7903 134.113 63.753 134.201 63.6877 134.266C63.6223 134.332 63.5342 134.369 63.4418 134.37" fill="#221E20"/>
<path d="M54.8998 134.43H52.9783C52.8855 134.43 52.7965 134.393 52.7309 134.327C52.6653 134.262 52.6284 134.173 52.6284 134.08V125.71C52.6284 125.617 52.6653 125.528 52.7309 125.463C52.7965 125.397 52.8855 125.36 52.9783 125.36H54.8998C54.9926 125.36 55.0815 125.397 55.1472 125.463C55.2128 125.528 55.2496 125.617 55.2496 125.71V134.08C55.2496 134.173 55.2128 134.262 55.1472 134.327C55.0815 134.393 54.9926 134.43 54.8998 134.43Z" fill="#221E20"/>
<path d="M64.0982 126.905C64.1046 127.227 64.0144 127.544 63.8392 127.815C63.664 128.085 63.4118 128.297 63.1152 128.423C62.8185 128.549 62.491 128.584 62.1746 128.522C61.8583 128.46 61.5677 128.305 61.3401 128.077C61.1126 127.848 60.9586 127.557 60.898 127.241C60.8373 126.924 60.8728 126.597 60.9998 126.301C61.1269 126.004 61.3397 125.753 61.6108 125.579C61.8819 125.404 62.199 125.315 62.5212 125.323C62.9374 125.332 63.3337 125.502 63.6276 125.797C63.9214 126.092 64.09 126.489 64.0982 126.905Z" fill="#BE3456"/>
<path d="M47.7575 127.675C47.5883 126.882 47.1934 126.156 46.6203 125.583C46.0473 125.01 45.3206 124.615 44.5281 124.445C43.9053 124.301 43.2581 124.299 42.6342 124.438C42.0103 124.577 41.4255 124.854 40.923 125.249C40.4205 125.644 40.013 126.147 39.7306 126.721C39.4481 127.294 39.2979 127.924 39.2911 128.563V134.074C39.2902 134.127 39.3014 134.179 39.3238 134.227C39.3462 134.274 39.3792 134.316 39.4202 134.349C39.4785 134.388 39.5468 134.408 39.6167 134.408C39.6866 134.408 39.7549 134.388 39.8131 134.349L41.9822 132.901H43.5969C44.2396 132.902 44.8741 132.758 45.4533 132.479C46.0325 132.201 46.5415 131.796 46.9423 131.293C47.3432 130.791 47.6257 130.205 47.7687 129.578C47.9117 128.952 47.9115 128.301 47.7683 127.675M43.5162 130.258H42.1383C42.0769 130.258 42.0181 130.234 41.9747 130.191C41.9313 130.147 41.9069 130.088 41.9069 130.027V128.638C41.9041 128.386 41.9593 128.137 42.0682 127.909C42.1771 127.682 42.3368 127.482 42.5349 127.326C42.733 127.17 42.9643 127.062 43.211 127.009C43.4577 126.957 43.7131 126.962 43.9576 127.024C44.237 127.095 44.4923 127.24 44.6967 127.444C44.9012 127.647 45.0474 127.902 45.1201 128.181C45.182 128.425 45.1868 128.681 45.1343 128.927C45.0819 129.174 44.9734 129.405 44.8174 129.603C44.6614 129.802 44.462 129.961 44.2345 130.07C44.007 130.179 43.7576 130.234 43.5054 130.231" fill="#221E20"/>
<path d="M24.3496 101.296C20.38 101.221 16.5982 99.5916 13.8173 96.7578C11.0364 93.924 9.47852 90.1122 9.47852 86.1419C9.47852 82.1715 11.0364 78.3597 13.8173 75.5259C16.5982 72.6921 20.38 71.0627 24.3496 70.9879H36.0293C37.8308 70.9879 39.5585 71.7035 40.8324 72.9773C42.1062 74.2512 42.8218 75.9789 42.8218 77.7804C42.8218 79.5819 42.1062 81.3096 40.8324 82.5834C39.5585 83.8573 37.8308 84.5729 36.0293 84.5729C35.9595 85.3637 35.7365 86.1333 35.3727 86.8389C35.8182 87.7007 36.0507 88.6568 36.0507 89.6269C36.0507 90.5971 35.8182 91.5532 35.3727 92.415C35.8522 93.3434 36.0846 94.3796 36.0476 95.4238C36.0107 96.4681 35.7055 97.4852 35.1616 98.3774C34.6176 99.2696 33.8532 100.007 32.9419 100.518C32.0305 101.029 31.0029 101.297 29.958 101.296H24.3496Z" fill="#414042"/>
<path d="M36.0243 73.679C37.112 73.679 38.1552 74.1111 38.9244 74.8803C39.6935 75.6494 40.1256 76.6926 40.1256 77.7804C40.1256 78.8681 39.6935 79.9113 38.9244 80.6805C38.1552 81.4496 37.112 81.8817 36.0243 81.8817H32.5742C32.8749 82.2432 33.0973 82.6632 33.2272 83.1151C33.3572 83.5669 33.3919 84.0409 33.3291 84.5069C33.2664 84.9729 33.1076 85.4208 32.8627 85.8222C32.6179 86.2236 32.2924 86.5698 31.9068 86.8389C32.3554 87.1524 32.7217 87.5696 32.9746 88.055C33.2275 88.5404 33.3596 89.0796 33.3596 89.6269C33.3596 90.1743 33.2275 90.7135 32.9746 91.1989C32.7217 91.6843 32.3554 92.1014 31.9068 92.415C32.4999 92.8296 32.9453 93.4225 33.1784 94.1076C33.4114 94.7926 33.4199 95.5342 33.2026 96.2244C32.9854 96.9147 32.5536 97.5176 31.9702 97.9457C31.3868 98.3738 30.682 98.6046 29.9584 98.6047H24.35C22.7114 98.6047 21.0889 98.2815 19.5754 97.6537C18.062 97.0258 16.6872 96.1056 15.5298 94.9457C14.3724 93.7858 13.4552 92.409 12.8306 90.8942C12.206 89.3794 11.8863 87.7562 11.8898 86.1176C11.8898 82.813 13.2026 79.6437 15.5393 77.307C17.876 74.9703 21.0453 73.6575 24.35 73.6575H36.0243M36.0243 68.2751H24.35C19.6708 68.3564 15.2107 70.2723 11.9304 73.61C8.65012 76.9478 6.81201 81.4405 6.81201 86.1203C6.81201 90.8002 8.65012 95.2929 11.9304 98.6306C15.2107 101.968 19.6708 103.884 24.35 103.966H29.9584C31.3509 103.965 32.7233 103.633 33.9625 102.998C35.2017 102.362 36.2722 101.442 37.0859 100.312C37.8995 99.1817 38.433 97.8745 38.6424 96.4978C38.8518 95.1211 38.7311 93.7144 38.2903 92.3935C38.878 90.6314 38.8931 88.7285 38.3333 86.9573C40.5776 86.394 42.5385 85.0298 43.8468 83.1213C45.1552 81.2129 45.7207 78.8919 45.4369 76.5956C45.153 74.2992 44.0395 72.1858 42.3058 70.6533C40.5722 69.1208 38.3381 68.275 36.0243 68.2751Z" fill="#333132"/>
<path d="M149.054 125.516C147.746 125.516 130.215 121.211 123.756 118.519C109.881 112.771 100.575 119.203 101.21 129.047C102.006 141.427 118.81 150.577 137.072 151.072C148.085 144.71 149.576 132.508 149.054 125.516Z" fill="#414042"/>
<path d="M145.366 126.098C144.661 133.305 142.315 144.032 133.794 151.228C149.118 151.228 168.058 147.39 177.93 135.054C183.958 127.519 182.273 117.142 180.788 112.782C179.916 113.503 179.017 114.203 178.097 114.87C169.447 121.011 158.273 124.822 145.366 126.098Z" fill="#414042"/>
<path d="M138.687 153.629C134.515 153.635 130.353 153.235 126.259 152.434C113.998 149.985 104.331 144.113 100.397 136.728C97.2483 130.807 97.8242 123.401 101.802 118.713C104.374 115.683 110.505 111.221 122.734 115.349C141.125 121.555 150.846 122.739 150.943 122.75C151.652 122.831 152.3 123.191 152.744 123.75C153.188 124.31 153.392 125.022 153.311 125.732C153.229 126.441 152.87 127.089 152.31 127.533C151.751 127.978 151.038 128.181 150.329 128.1C149.915 128.052 140.033 126.867 121.011 120.446C114.181 118.143 108.82 118.762 105.908 122.196C103.32 125.242 103.007 130.178 105.15 134.198C108.331 140.178 116.619 145.022 127.314 147.154C139.85 149.656 157.993 148.451 171.229 137.562C177.025 132.804 179.84 127.007 179.636 120.339C179.538 117.363 178.852 114.436 177.618 111.727C177.286 111.095 177.22 110.356 177.433 109.675C177.646 108.994 178.121 108.425 178.753 108.094C179.386 107.763 180.124 107.696 180.805 107.909C181.486 108.122 182.055 108.597 182.386 109.229C182.483 109.412 191.752 127.691 174.646 141.739C163.957 150.501 150.512 153.623 138.687 153.629Z" fill="#333132"/>
</svg>
