<svg width="32" height="32" viewBox="0 0 32 32" fill="none" xmlns="http://www.w3.org/2000/svg">
<path d="M26.8801 2.87695H9.48486C7.77057 2.87695 6.38086 4.26666 6.38086 5.98095V16.8898C6.38086 18.604 7.77057 19.9938 9.48486 19.9938H26.8801C28.5944 19.9938 29.9841 18.604 29.9841 16.8898V5.98095C29.9841 4.26666 28.5944 2.87695 26.8801 2.87695Z" fill="#1A1C1F"/>
<path d="M22.3619 7.23828H5.28033C4.41629 7.24081 3.58837 7.58517 2.9774 8.19614C2.36642 8.80712 2.02206 9.63504 2.01953 10.4991V21.0943C2.02122 21.9586 2.36531 22.787 2.97647 23.3981C3.58762 24.0093 4.41603 24.3534 5.28033 24.3551H7.70273C7.82535 24.3546 7.94671 24.3797 8.05905 24.4288C8.17139 24.478 8.27222 24.55 8.35507 24.6404C8.43793 24.7308 8.50098 24.8375 8.54018 24.9537C8.57939 25.0699 8.59388 25.193 8.58273 25.3151L8.29793 28.7103C8.27934 28.9113 8.32457 29.113 8.4272 29.2868C8.52983 29.4606 8.68463 29.5976 8.8696 29.6784C9.05456 29.7592 9.26029 29.7797 9.45754 29.7368C9.65479 29.694 9.83352 29.5901 9.96833 29.4399L14.4931 24.6399C14.5755 24.5527 14.6747 24.4831 14.7847 24.4353C14.8947 24.3875 15.0132 24.3623 15.1331 24.3615H22.3619C23.2268 24.3589 24.0553 24.0136 24.666 23.4012C25.2766 22.7887 25.6195 21.9591 25.6195 21.0943V10.4991C25.617 9.63559 25.2731 8.80815 24.6628 8.19727C24.0525 7.58639 23.2254 7.24166 22.3619 7.23828Z" fill="#CCCCCC"/>
<path d="M20.0387 13.2382H7.68033C7.41002 13.2382 7.15079 13.1309 6.95965 12.9397C6.76851 12.7486 6.66113 12.4894 6.66113 12.219C6.66113 11.9487 6.76851 11.6895 6.95965 11.4984C7.15079 11.3072 7.41002 11.1998 7.68033 11.1998H20.0387C20.177 11.1921 20.3153 11.2126 20.4453 11.2602C20.5753 11.3077 20.6943 11.3813 20.7949 11.4764C20.8955 11.5715 20.9756 11.6861 21.0304 11.8133C21.0851 11.9404 21.1134 12.0774 21.1134 12.2158C21.1134 12.3543 21.0851 12.4913 21.0304 12.6184C20.9756 12.7455 20.8955 12.8602 20.7949 12.9553C20.6943 13.0504 20.5753 13.124 20.4453 13.1715C20.3153 13.2191 20.177 13.2396 20.0387 13.2318V13.2382Z" fill="#1A1C1F"/>
<path d="M20.0385 16.768H7.68011C7.54189 16.7757 7.40354 16.7552 7.27353 16.7077C7.14351 16.6601 7.02457 16.5865 6.92398 16.4914C6.82338 16.3963 6.74325 16.2817 6.68848 16.1545C6.63372 16.0274 6.60547 15.8904 6.60547 15.752C6.60547 15.6135 6.63372 15.4766 6.68848 15.3494C6.74325 15.2223 6.82338 15.1076 6.92398 15.0125C7.02457 14.9174 7.14351 14.8438 7.27353 14.7963C7.40354 14.7487 7.54189 14.7282 7.68011 14.736H20.0385C20.1767 14.7282 20.3151 14.7487 20.4451 14.7963C20.5751 14.8438 20.694 14.9174 20.7946 15.0125C20.8952 15.1076 20.9754 15.2223 21.0301 15.3494C21.0849 15.4766 21.1132 15.6135 21.1132 15.752C21.1132 15.8904 21.0849 16.0274 21.0301 16.1545C20.9754 16.2817 20.8952 16.3963 20.7946 16.4914C20.694 16.5865 20.5751 16.6601 20.4451 16.7077C20.3151 16.7552 20.1767 16.7757 20.0385 16.768Z" fill="#1A1C1F"/>
<path d="M10.2397 20.3008H7.67971C7.40983 20.3008 7.15099 20.1936 6.96016 20.0028C6.76932 19.8119 6.66211 19.5531 6.66211 19.2832C6.66211 19.0133 6.76932 18.7545 6.96016 18.5637C7.15099 18.3728 7.40983 18.2656 7.67971 18.2656H10.2397C10.5096 18.2656 10.7684 18.3728 10.9593 18.5637C11.1501 18.7545 11.2573 19.0133 11.2573 19.2832C11.2573 19.5531 11.1501 19.8119 10.9593 20.0028C10.7684 20.1936 10.5096 20.3008 10.2397 20.3008Z" fill="#1A1C1F"/>
<path d="M14.1188 20.3008H13.5108C13.2409 20.3008 12.982 20.1936 12.7912 20.0028C12.6004 19.8119 12.4932 19.5531 12.4932 19.2832C12.4932 19.0133 12.6004 18.7545 12.7912 18.5637C12.982 18.3728 13.2409 18.2656 13.5108 18.2656H14.1188C14.3886 18.2656 14.6475 18.3728 14.8383 18.5637C15.0292 18.7545 15.1364 19.0133 15.1364 19.2832C15.1364 19.5531 15.0292 19.8119 14.8383 20.0028C14.6475 20.1936 14.3886 20.3008 14.1188 20.3008Z" fill="#1A1C1F"/>
</svg>
