<svg width="124" height="52" viewBox="0 0 124 52" fill="none" xmlns="http://www.w3.org/2000/svg">
<g clip-path="url(#clip0_459_2192)">
<path d="M63.5202 13.3662C63.5747 15.0318 63.139 16.6764 62.2684 18.0918C61.3977 19.5073 60.1312 20.6302 58.6289 21.3184C57.1266 22.0066 55.456 22.2293 53.8284 21.9583C52.2008 21.6872 50.6894 20.9347 49.4851 19.7958C48.2809 18.6569 47.438 17.1827 47.0631 15.5599C46.6881 13.937 46.7979 12.2382 47.3786 10.6783C47.9593 9.11849 48.9848 7.76766 50.3254 6.79665C51.666 5.82565 53.2615 5.2781 54.9102 5.22324H55.4602C57.5756 5.29386 59.5853 6.17445 61.082 7.68652C62.5787 9.19859 63.4503 11.229 63.5202 13.3662Z" fill="#1A1C1F"/>
<path d="M60.4899 26.0051H49.8799C49.0847 26.0051 48.4399 26.6564 48.4399 27.4599V50.5351C48.4399 51.3385 49.0847 51.9899 49.8799 51.9899H60.4899C61.2852 51.9899 61.9299 51.3385 61.9299 50.5351V27.4599C61.9299 26.6564 61.2852 26.0051 60.4899 26.0051Z" fill="#1A1C1F"/>
<path d="M96.4402 34.0369L103.18 23.1358C103.43 22.7295 103.51 22.24 103.403 21.7743C103.296 21.3085 103.011 20.9045 102.61 20.6505C102.312 20.4597 101.963 20.3646 101.61 20.3777H90.0002C89.6982 20.3798 89.4017 20.4587 89.1378 20.607C88.8739 20.7553 88.6512 20.9683 88.4902 21.2263L81.3602 32.7033L81.2802 32.8347C81.0434 33.2443 80.8904 33.6978 80.8302 34.1682C80.8203 34.3129 80.8203 34.458 80.8302 34.6027C80.825 34.6868 80.825 34.7711 80.8302 34.8552C80.8583 35.2874 80.9704 35.7096 81.1602 36.0979C81.2176 36.2377 81.2915 36.37 81.3802 36.4919L89.5102 51.0705C89.6654 51.3482 89.8905 51.5795 90.1627 51.741C90.4349 51.9025 90.7445 51.9883 91.0602 51.9899H102.36C102.833 51.9899 103.287 51.8008 103.622 51.4638C103.958 51.1268 104.148 50.6694 104.15 50.1916C104.15 49.8803 104.071 49.5742 103.92 49.3025L96.4102 35.8756C96.2454 35.5979 96.1583 35.2801 96.1583 34.9563C96.1583 34.6324 96.2454 34.3147 96.4102 34.0369H96.4402Z" fill="#1A1C1F"/>
<path d="M78.7702 5.22324H68.1602C67.3649 5.22324 66.7202 5.87458 66.7202 6.67806V50.5351C66.7202 51.3385 67.3649 51.9899 68.1602 51.9899H78.7702C79.5655 51.9899 80.2102 51.3385 80.2102 50.5351V6.67806C80.2102 5.87458 79.5655 5.22324 78.7702 5.22324Z" fill="#1A1C1F"/>
<path d="M120.97 26.0051H110.36C109.565 26.0051 108.92 26.6564 108.92 27.4599V50.5351C108.92 51.3385 109.565 51.9899 110.36 51.9899H120.97C121.765 51.9899 122.41 51.3385 122.41 50.5351V27.4599C122.41 26.6564 121.765 26.0051 120.97 26.0051Z" fill="#1A1C1F"/>
<path d="M124 13.3662C124.055 15.0318 123.619 16.6764 122.748 18.0918C121.878 19.5073 120.611 20.6302 119.109 21.3184C117.607 22.0066 115.936 22.2293 114.308 21.9583C112.681 21.6872 111.169 20.9347 109.965 19.7958C108.761 18.6569 107.918 17.1827 107.543 15.5599C107.168 13.937 107.278 12.2382 107.859 10.6783C108.439 9.11849 109.465 7.76766 110.805 6.79665C112.146 5.82565 113.742 5.2781 115.39 5.22324H115.94C118.055 5.29623 120.063 6.17758 121.559 7.68916C123.056 9.20073 123.928 11.2298 124 13.3662Z" fill="#1A1C1F"/>
<path d="M43.13 17.1952C42.2615 13.1318 40.2576 9.40538 37.3561 6.45785C34.4546 3.51033 30.7772 1.46544 26.76 0.565735C23.9628 -0.0852431 21.0661 -0.173012 18.2353 0.307442C15.4045 0.787896 12.6951 1.82716 10.2621 3.36585C7.82896 4.90453 5.7198 6.91249 4.05508 9.27499C2.39036 11.6375 1.20272 14.3082 0.56 17.1346C0.20823 18.6451 0.0204549 20.1899 2.18399e-07 21.7416V50.1713C-0.000133297 50.4452 0.0609518 50.7155 0.178697 50.9622C0.296442 51.2088 0.467806 51.4255 0.68 51.5959C0.961905 51.8171 1.30258 51.9487 1.6587 51.9739C2.01483 51.9991 2.37033 51.9167 2.68 51.7373L13.47 44.1197H21.81C25.0857 44.1146 28.3184 43.3665 31.2696 41.9306C34.2209 40.4947 36.8154 38.4076 38.8617 35.8234C40.908 33.2393 42.3538 30.2238 43.0926 26.9997C43.8313 23.7756 43.8441 20.425 43.13 17.1952ZM21.43 30.4907H14.43C14.272 30.4921 14.1154 30.4616 13.9692 30.4012C13.823 30.3407 13.6902 30.2515 13.5785 30.1387C13.4668 30.0258 13.3785 29.8916 13.3186 29.7439C13.2588 29.5962 13.2287 29.438 13.23 29.2784V22.2467C13.2122 20.5866 13.6844 18.9588 14.5862 17.571C15.488 16.1831 16.7787 15.0982 18.2934 14.4545C19.8082 13.8109 21.4784 13.6378 23.091 13.9573C24.7035 14.2768 26.1853 15.0744 27.3473 16.2483C28.5093 17.4222 29.2987 18.9193 29.6149 20.5484C29.9312 22.1776 29.7598 23.865 29.1228 25.3954C28.4857 26.9257 27.4118 28.2297 26.0381 29.1408C24.6644 30.0519 23.0532 30.5289 21.41 30.5109L21.43 30.4907Z" fill="#1A1C1F"/>
</g>
<defs>
<clipPath id="clip0_459_2192">
<rect width="124" height="52" fill="white"/>
</clipPath>
</defs>
</svg>
