<svg width="24" height="24" viewBox="0 0 24 24" fill="none" xmlns="http://www.w3.org/2000/svg">
<g opacity="0.8">
<path fill-rule="evenodd" clip-rule="evenodd" d="M1.25 6C1.25 3.37665 3.37665 1.25 6 1.25H18C20.6233 1.25 22.75 3.37664 22.75 6V18C22.75 20.6233 20.6233 22.75 18 22.75H6C3.37664 22.75 1.25 20.6233 1.25 18V6ZM6 2.75C4.20507 2.75 2.75 4.20507 2.75 6V18C2.75 19.7949 4.20508 21.25 6 21.25H18C19.7949 21.25 21.25 19.7949 21.25 18V6C21.25 4.20508 19.7949 2.75 18 2.75H6ZM18 5.25C18.4142 5.25 18.75 5.58579 18.75 6V6.0217C18.75 6.43591 18.4142 6.7717 18 6.7717C17.5858 6.7717 17.25 6.43591 17.25 6.0217V6C17.25 5.58579 17.5858 5.25 18 5.25ZM12 8.30556C9.95961 8.30556 8.30556 9.95961 8.30556 12C8.30556 14.0404 9.9596 15.6944 12 15.6944C14.0404 15.6944 15.6944 14.0404 15.6944 12C15.6944 9.9596 14.0404 8.30556 12 8.30556ZM6.80556 12C6.80556 9.13119 9.13119 6.80556 12 6.80556C14.8688 6.80556 17.1944 9.1312 17.1944 12C17.1944 14.8688 14.8688 17.1944 12 17.1944C9.1312 17.1944 6.80556 14.8688 6.80556 12Z" fill="black"/>
</g>
</svg>
