<svg width="24" height="24" viewBox="0 0 24 24" fill="none" xmlns="http://www.w3.org/2000/svg">
<path fill-rule="evenodd" clip-rule="evenodd" d="M2.77997 11.25H7.26864C7.42082 8.18645 8.49765 5.25407 10.2326 2.91867C6.20834 3.69729 3.11421 7.08432 2.77997 11.25ZM12 3.10855C10.133 5.27934 8.93956 8.18627 8.77069 11.25H15.2293C15.0604 8.18627 13.867 5.27934 12 3.10855ZM15.2293 12.75H8.7707C8.93962 15.8136 10.133 18.7207 12 20.8914C13.867 18.7207 15.0604 15.8137 15.2293 12.75ZM10.2326 21.0813C8.49769 18.7459 7.42087 15.8135 7.26865 12.75H2.77997C3.11422 16.9157 6.20835 20.3027 10.2326 21.0813ZM13.7674 21.0813C15.5023 18.7459 16.5791 15.8135 16.7314 12.75H21.22C20.8858 16.9156 17.7916 20.3027 13.7674 21.0813ZM21.22 11.25H16.7314C16.5792 8.18645 15.5024 5.25407 13.7674 2.91867C17.7916 3.6973 20.8858 7.08433 21.22 11.25ZM1.25 12C1.25 6.06294 6.06294 1.25 12 1.25C17.937 1.25 22.75 6.06293 22.75 12C22.75 17.937 17.937 22.75 12 22.75C6.06293 22.75 1.25 17.937 1.25 12Z" fill="#1A1C1F"/>
</svg>
