<svg width="24" height="24" viewBox="0 0 24 24" fill="none" xmlns="http://www.w3.org/2000/svg">
<path fill-rule="evenodd" clip-rule="evenodd" d="M12 5.75C9.56592 5.75 6.21737 5.9601 4.27998 6.09837L4.27997 6.09837C3.71733 6.13852 3.27037 6.55398 3.19213 7.09907C2.99376 8.48109 2.75 10.4936 2.75 12.0001C2.75 13.5067 2.99375 15.5191 3.19212 16.9011L2.44973 17.0077L3.19212 16.9011C3.27036 17.4462 3.71736 17.8617 4.27997 17.9018L4.28002 17.9018C6.21744 18.04 9.56593 18.25 12 18.25C14.4341 18.25 17.7826 18.04 19.7199 17.9018L19.72 17.9018C20.2826 17.8617 20.7296 17.4463 20.8079 16.9012C21.0062 15.5191 21.25 13.5067 21.25 12.0001C21.25 10.4936 21.0062 8.48109 20.8079 7.09904C20.7296 6.55394 20.2826 6.13851 19.72 6.09837L19.7734 5.35048L19.72 6.09837C17.7827 5.9601 14.4341 5.75 12 5.75ZM4.1732 4.60217C6.11051 4.46392 9.50684 4.25 12 4.25C14.4931 4.25 17.8895 4.46392 19.8268 4.60217C21.08 4.6916 22.1122 5.62902 22.2927 6.88589L22.2927 6.88598C22.4918 8.27329 22.75 10.3776 22.75 12.0001C22.75 13.6227 22.4918 15.7269 22.2927 17.1142L22.2927 17.1143C22.1122 18.3711 21.08 19.3087 19.8267 19.398C17.8894 19.5362 14.4931 19.75 12 19.75C9.50689 19.75 6.11062 19.5362 4.1733 19.398C2.91999 19.3087 1.88775 18.3712 1.70734 17.1143L2.44919 17.0078L1.70734 17.1143C1.50821 15.7269 1.25 13.6227 1.25 12.0001C1.25 10.3776 1.50822 8.27329 1.70735 6.88595L1.70735 6.88595C1.88777 5.62902 2.91997 4.6916 4.1732 4.60217ZM4.22659 5.35027L4.1732 4.60217L4.22659 5.35027Z" fill="#1A1C1F"/>
<path fill-rule="evenodd" clip-rule="evenodd" d="M9.625 7.88661C9.85705 7.75264 10.1429 7.75264 10.375 7.88661L16.375 11.3507C16.6071 11.4847 16.75 11.7323 16.75 12.0002C16.75 12.2682 16.6071 12.5158 16.375 12.6498L10.375 16.1139C10.1429 16.2478 9.85705 16.2478 9.625 16.1139C9.39295 15.9799 9.25 15.7323 9.25 15.4643V8.53613C9.25 8.26818 9.39295 8.02059 9.625 7.88661ZM10.75 9.83517V14.1653L14.5 12.0002L10.75 9.83517Z" fill="#1A1C1F"/>
</svg>
