<svg width="32" height="32" viewBox="0 0 32 32" fill="none" xmlns="http://www.w3.org/2000/svg">
<path d="M21.4976 9.93896L27.2 13.2158L27.3568 13.3054C27.8363 13.5998 28.2309 14.0142 28.5016 14.5075C28.7723 15.0009 28.9097 15.5564 28.9003 16.119C28.891 16.6817 28.7351 17.2322 28.4482 17.7164C28.1612 18.2005 27.7531 18.6014 27.264 18.8798L21.5264 22.1598L15.3184 16.0798L21.4976 9.93896Z" fill="#FBBC04"/>
<path d="M21.5263 22.1602L8.17269 29.7602C7.68655 30.0422 7.13471 30.1912 6.57269 30.1922C5.86651 30.1942 5.17898 29.9656 4.61466 29.5411C4.05034 29.1165 3.64009 28.5193 3.44629 27.8402L15.3183 16.061L21.5263 22.1602Z" fill="#EA4335"/>
<path d="M15.3184 16.0673L3.43356 4.25293C3.35665 4.53556 3.31791 4.82722 3.31836 5.12013V26.9761C3.32106 27.2686 3.36413 27.5594 3.44636 27.8401L15.3184 16.0673Z" fill="#4285F4"/>
<path d="M3.43018 4.25618C3.56402 3.77238 3.80839 3.32627 4.14404 2.95301C4.47968 2.57976 4.89743 2.28955 5.36435 2.10526C5.83127 1.92097 6.33461 1.84764 6.83471 1.89105C7.3348 1.93445 7.81798 2.0934 8.24618 2.35538L21.4942 9.94578L15.3118 16.0706L3.43018 4.25618Z" fill="#34A853"/>
</svg>
