<svg width="32" height="32" viewBox="0 0 32 32" fill="none" xmlns="http://www.w3.org/2000/svg">
<path fill-rule="evenodd" clip-rule="evenodd" d="M17.1888 3.84866C17.6698 3.12616 18.2873 2.52713 18.9989 2.0929C19.7105 1.65868 20.4991 1.39958 21.3104 1.3335C21.3788 2.1646 21.2939 3.00233 21.0608 3.7964C20.8278 4.59046 20.4514 5.32448 19.9543 5.95438C18.1231 8.36288 16.0452 7.97752 16.0452 7.97752C16.0452 7.97752 15.6514 6.0748 17.1888 3.84866Z" fill="black"/>
<path fill-rule="evenodd" clip-rule="evenodd" d="M16.2208 9.38493C17.2161 9.38493 19.0631 8 21.4778 8C25.6168 8 27.243 10.9829 27.243 10.9829C26.2631 11.5532 25.4501 12.3766 24.8867 13.3691C24.3234 14.3616 24.0299 15.4878 24.0362 16.6327C24.0362 21.1497 28 22.7051 28 22.7051C28 22.7051 25.2278 30.6205 21.4778 30.6205C19.757 30.6205 18.4182 29.4486 16.6063 29.4486C14.7944 29.4486 12.9264 30.6667 11.7348 30.6667C8.32126 30.656 4 23.1632 4 17.1263C4 11.1924 7.65888 8.08168 11.09 8.08168C13.3189 8.08168 15.0467 9.38493 16.2208 9.38493Z" fill="black"/>
</svg>
